<svg width="580" height="720" viewBox="0 0 580 720" fill="none" xmlns="http://www.w3.org/2000/svg">
  <rect width="580" height="720" rx="280" fill="url(#paint0_linear)"/>
  <path d="M307 90C259 90 215 118 194 162C172 209 182 267 221 303L188 340C164 364 160 400 179 426L215 475L169 518C147 539 149 574 172 593C186 604 205 607 221 602L270 587L278 618C283 639 304 653 325 649C332 648 339 646 345 642L403 605L435 643C453 665 487 666 507 646C525 628 526 598 510 577L470 526L517 472C540 445 535 404 507 383L461 348L495 305C533 257 528 190 485 150C455 122 410 107 367 116L307 90Z" fill="url(#paint1_linear)" opacity="0.92"/>
  <defs>
    <linearGradient id="paint0_linear" x1="562" y1="695" x2="44" y2="40" gradientUnits="userSpaceOnUse">
      <stop stop-color="#441445"/>
      <stop offset="1" stop-color="#FF536C"/>
    </linearGradient>
    <linearGradient id="paint1_linear" x1="138" y1="696" x2="547" y2="131" gradientUnits="userSpaceOnUse">
      <stop stop-color="#FFAE4A" stop-opacity="0.95"/>
      <stop offset="0.45" stop-color="#FF5F6D" stop-opacity="0.9"/>
      <stop offset="1" stop-color="#611A66" stop-opacity="0.95"/>
    </linearGradient>
  </defs>
</svg>
